<mxfile host="app.diagrams.net" modified="2023-11-12T09:25:04.252Z" agent="Mozilla/5.0 (Macintosh; Intel Mac OS X 10_15_7) AppleWebKit/537.36 (KHTML, like Gecko) Chrome/119.0.0.0 Safari/537.36" version="22.1.0" etag="1pK1GbhrL5TdPeYIxM3t" type="github">
  <diagram name="第 1 页" id="Vyd8Yfl46zsRTxP9km9b">
    <mxGraphModel>
      <root>
        <mxCell id="0" />
        <mxCell id="1" parent="0" />
      </root>
    </mxGraphModel>
  </diagram>
</mxfile>
